<svg xmlns="http://www.w3.org/2000/svg" width="2293.993" height="2005.653" viewBox="0 0 2293.993 2005.653">
  <g id="Сгруппировать_1907" data-name="Сгруппировать 1907" transform="translate(-549 -1359.796)">
    <rect id="Прямоугольник_1650" data-name="Прямоугольник 1650" width="1920.871" height="1294.622" rx="113" transform="matrix(0.899, -0.438, 0.438, 0.899, 549, 2201.85)" fill="#4c4083"/>
    <g id="Сгруппировать_1906" data-name="Сгруппировать 1906" transform="translate(-2.136 655.909)">
      <g id="Сгруппировать_1899" data-name="Сгруппировать 1899" transform="translate(2910 -354.882)">
        <path id="Контур_746" data-name="Контур 746" d="M535.47,505.081l224.49,155.026V350.056Z" transform="matrix(-0.259, 0.966, -0.966, -0.259, -596.102, 1573.254)" fill="#f0f220"/>
        <path id="Контур_747" data-name="Контур 747" d="M680.368,577.5l507.318,350.338V227.157Z" transform="translate(-2103.823 1122.981)" fill="#f0f220"/>
        <g id="Сгруппировать_1846" data-name="Сгруппировать 1846" transform="translate(-1454.411 2013.977)" opacity="0.51">
          <g id="Сгруппировать_1845" data-name="Сгруппировать 1845">
            <g id="Сгруппировать_1838" data-name="Сгруппировать 1838">
              <g id="Сгруппировать_1836" data-name="Сгруппировать 1836">
                <path id="Контур_812" data-name="Контур 812" d="M575.478,367.771a2.611,2.611,0,1,1-2.61-2.611A2.608,2.608,0,0,1,575.478,367.771Z" transform="translate(-570.257 -365.16)"/>
                <circle id="Эллипс_41" data-name="Эллипс 41" cx="2.611" cy="2.611" r="2.611" transform="translate(39.319)"/>
                <circle id="Эллипс_42" data-name="Эллипс 42" cx="2.611" cy="2.611" r="2.611" transform="translate(78.638)"/>
                <circle id="Эллипс_43" data-name="Эллипс 43" cx="2.611" cy="2.611" r="2.611" transform="translate(117.956)"/>
                <path id="Контур_813" data-name="Контур 813" d="M635.3,367.771a2.611,2.611,0,1,1-2.61-2.611A2.608,2.608,0,0,1,635.3,367.771Z" transform="translate(-472.807 -365.16)"/>
              </g>
              <g id="Сгруппировать_1837" data-name="Сгруппировать 1837" transform="translate(19.659 29.949)">
                <path id="Контур_814" data-name="Контур 814" d="M582.956,379.165a2.611,2.611,0,1,1-2.61-2.613A2.61,2.61,0,0,1,582.956,379.165Z" transform="translate(-577.735 -376.552)"/>
                <circle id="Эллипс_44" data-name="Эллипс 44" cx="2.611" cy="2.611" r="2.611" transform="translate(39.319 0.001)"/>
                <circle id="Эллипс_45" data-name="Эллипс 45" cx="2.611" cy="2.611" r="2.611" transform="translate(78.638 0.001)"/>
                <path id="Контур_815" data-name="Контур 815" d="M627.825,379.165a2.611,2.611,0,1,1-2.611-2.613A2.61,2.61,0,0,1,627.825,379.165Z" transform="translate(-504.647 -376.552)"/>
              </g>
            </g>
            <g id="Сгруппировать_1841" data-name="Сгруппировать 1841" transform="translate(0 60.052)">
              <g id="Сгруппировать_1839" data-name="Сгруппировать 1839">
                <path id="Контур_816" data-name="Контур 816" d="M575.478,390.616a2.611,2.611,0,1,1-2.61-2.613A2.61,2.61,0,0,1,575.478,390.616Z" transform="translate(-570.257 -388.003)"/>
                <circle id="Эллипс_46" data-name="Эллипс 46" cx="2.611" cy="2.611" r="2.611" transform="translate(39.319 0.001)"/>
                <circle id="Эллипс_47" data-name="Эллипс 47" cx="2.611" cy="2.611" r="2.611" transform="translate(78.638 0.001)"/>
                <circle id="Эллипс_48" data-name="Эллипс 48" cx="2.611" cy="2.611" r="2.611" transform="translate(117.956 0.001)"/>
                <path id="Контур_817" data-name="Контур 817" d="M635.3,390.616a2.611,2.611,0,1,1-2.61-2.613A2.61,2.61,0,0,1,635.3,390.616Z" transform="translate(-472.807 -388.003)"/>
              </g>
              <g id="Сгруппировать_1840" data-name="Сгруппировать 1840" transform="translate(19.659 29.951)">
                <path id="Контур_818" data-name="Контур 818" d="M582.956,402.007a2.611,2.611,0,1,1-2.61-2.611A2.608,2.608,0,0,1,582.956,402.007Z" transform="translate(-577.735 -399.396)"/>
                <circle id="Эллипс_49" data-name="Эллипс 49" cx="2.611" cy="2.611" r="2.611" transform="translate(39.319)"/>
                <circle id="Эллипс_50" data-name="Эллипс 50" cx="2.611" cy="2.611" r="2.611" transform="translate(78.638)"/>
                <path id="Контур_819" data-name="Контур 819" d="M627.825,402.007a2.611,2.611,0,1,1-2.611-2.611A2.609,2.609,0,0,1,627.825,402.007Z" transform="translate(-504.647 -399.396)"/>
              </g>
            </g>
            <g id="Сгруппировать_1844" data-name="Сгруппировать 1844" transform="translate(0 120.106)">
              <g id="Сгруппировать_1842" data-name="Сгруппировать 1842">
                <path id="Контур_820" data-name="Контур 820" d="M575.478,413.458a2.611,2.611,0,1,1-2.61-2.611A2.61,2.61,0,0,1,575.478,413.458Z" transform="translate(-570.257 -410.846)"/>
                <circle id="Эллипс_51" data-name="Эллипс 51" cx="2.611" cy="2.611" r="2.611" transform="translate(39.319)"/>
                <circle id="Эллипс_52" data-name="Эллипс 52" cx="2.611" cy="2.611" r="2.611" transform="translate(78.638)"/>
                <circle id="Эллипс_53" data-name="Эллипс 53" cx="2.611" cy="2.611" r="2.611" transform="translate(117.956)"/>
                <path id="Контур_821" data-name="Контур 821" d="M635.3,413.458a2.611,2.611,0,1,1-2.61-2.611A2.61,2.61,0,0,1,635.3,413.458Z" transform="translate(-472.807 -410.846)"/>
              </g>
              <g id="Сгруппировать_1843" data-name="Сгруппировать 1843" transform="translate(19.659 29.95)">
                <path id="Контур_822" data-name="Контур 822" d="M582.956,424.849a2.611,2.611,0,1,1-2.61-2.61A2.611,2.611,0,0,1,582.956,424.849Z" transform="translate(-577.735 -422.239)"/>
                <circle id="Эллипс_54" data-name="Эллипс 54" cx="2.611" cy="2.611" r="2.611" transform="translate(39.319 0)"/>
                <circle id="Эллипс_55" data-name="Эллипс 55" cx="2.611" cy="2.611" r="2.611" transform="translate(78.638 0)"/>
                <path id="Контур_823" data-name="Контур 823" d="M627.825,424.849a2.611,2.611,0,1,1-2.611-2.61A2.611,2.611,0,0,1,627.825,424.849Z" transform="translate(-504.647 -422.239)"/>
              </g>
            </g>
          </g>
        </g>
        <path id="Контур_831" data-name="Контур 831" d="M690.525,610.342H551.15V470.967H690.525Zm-139.125-.25H690.275V471.217H551.4Zm117.72-21.155H572.552V492.369H669.12Zm-96.318-.25H668.87V492.619H572.8Z" transform="translate(-2097.588 1819.371)"/>
        <path id="Контур_832" data-name="Контур 832" d="M862.792,448.877H723.414V309.5H862.792Zm-139.128-.25H862.542V309.752H723.664Zm117.723-21.152H744.819V330.907h96.568Zm-96.318-.25h96.068V331.157H745.069Z" transform="translate(-1816.984 1556.358)"/>
        <path id="Контур_838" data-name="Контур 838" d="M582.129,355.625a23.774,23.774,0,0,1-2.905-.181,46.324,46.324,0,0,1-10.9-3.165c-6.883-2.635-14-5.359-23.842-1.11l-.066-.153a26.85,26.85,0,0,1,6.935-2.009,23.071,23.071,0,0,1,6.132-.049,46.317,46.317,0,0,1,10.9,3.165c6.883,2.635,14,5.359,23.843,1.111s12.74-11.3,15.543-18.113a46.316,46.316,0,0,1,5.172-10.1,23.072,23.072,0,0,1,4.241-4.429,28.82,28.82,0,0,1,13.154-5.678,23.078,23.078,0,0,1,6.132-.049,46.32,46.32,0,0,1,10.9,3.165c6.883,2.635,14,5.359,23.843,1.109s12.743-11.3,15.547-18.113a46.331,46.331,0,0,1,5.174-10.1,23.084,23.084,0,0,1,4.242-4.429,28.82,28.82,0,0,1,13.155-5.679,23.084,23.084,0,0,1,6.133-.049,46.331,46.331,0,0,1,10.9,3.164c6.884,2.634,14,5.357,23.846,1.108l.066.153a26.867,26.867,0,0,1-6.937,2.009,23.087,23.087,0,0,1-6.133.049,46.333,46.333,0,0,1-10.9-3.164c-6.884-2.634-14-5.357-23.846-1.108s-12.743,11.3-15.547,18.113a46.332,46.332,0,0,1-5.174,10.1,23.084,23.084,0,0,1-4.242,4.429,28.821,28.821,0,0,1-13.154,5.679,23.076,23.076,0,0,1-6.132.049,46.323,46.323,0,0,1-10.9-3.165c-6.883-2.635-14-5.359-23.843-1.109s-12.74,11.3-15.543,18.111a46.326,46.326,0,0,1-5.172,10.1,23.075,23.075,0,0,1-4.241,4.429,28.8,28.8,0,0,1-13.153,5.678A22.924,22.924,0,0,1,582.129,355.625Z" transform="translate(-2108.708 1509.185)"/>
        <path id="Контур_839" data-name="Контур 839" d="M761.81,523.855a23.78,23.78,0,0,1-2.9-.181,46.329,46.329,0,0,1-10.9-3.165c-6.883-2.635-14-5.36-23.843-1.11l-.066-.153a26.85,26.85,0,0,1,6.935-2.009,23.076,23.076,0,0,1,6.132-.049,46.326,46.326,0,0,1,10.9,3.165c6.883,2.635,14,5.359,23.841,1.111s12.74-11.3,15.543-18.112a46.324,46.324,0,0,1,5.173-10.1,23.078,23.078,0,0,1,4.241-4.43,28.81,28.81,0,0,1,13.154-5.678,23.078,23.078,0,0,1,6.132-.048,46.333,46.333,0,0,1,10.9,3.165c6.883,2.634,14,5.359,23.842,1.111s12.743-11.3,15.547-18.114a46.328,46.328,0,0,1,5.174-10.1,23.076,23.076,0,0,1,4.242-4.429,28.827,28.827,0,0,1,13.155-5.678,23.088,23.088,0,0,1,6.133-.049,46.331,46.331,0,0,1,10.9,3.164c6.883,2.634,14,5.357,23.846,1.108l.066.153a26.865,26.865,0,0,1-6.937,2.009,23.084,23.084,0,0,1-6.133.049,46.333,46.333,0,0,1-10.9-3.164c-6.884-2.634-14-5.357-23.846-1.108s-12.743,11.3-15.547,18.113a46.336,46.336,0,0,1-5.174,10.1,23.083,23.083,0,0,1-4.242,4.43,28.809,28.809,0,0,1-13.154,5.678,23.078,23.078,0,0,1-6.132.048,46.33,46.33,0,0,1-10.9-3.165c-6.883-2.635-14-5.359-23.842-1.111s-12.742,11.3-15.546,18.114a46.325,46.325,0,0,1-5.173,10.1,23.08,23.08,0,0,1-4.241,4.429,28.8,28.8,0,0,1-13.152,5.678A22.9,22.9,0,0,1,761.81,523.855Z" transform="translate(-1816.023 1783.218)"/>
        <g id="Сгруппировать_1882" data-name="Сгруппировать 1882" transform="translate(-1220.021 2334.615)">
          <g id="Сгруппировать_1881" data-name="Сгруппировать 1881">
            <g id="Сгруппировать_1877" data-name="Сгруппировать 1877" transform="translate(0 16.98)">
              <g id="Сгруппировать_1875" data-name="Сгруппировать 1875">
                <path id="Контур_860" data-name="Контур 860" d="M675.391,501.588l12.544,7.242V494.345Z" transform="translate(-675.391 -494.345)"/>
              </g>
              <g id="Сгруппировать_1876" data-name="Сгруппировать 1876" transform="translate(35.901)">
                <path id="Контур_861" data-name="Контур 861" d="M701.591,501.588l-12.544-7.242V508.83Z" transform="translate(-689.047 -494.345)"/>
              </g>
            </g>
            <g id="Сгруппировать_1880" data-name="Сгруппировать 1880" transform="translate(16.98)">
              <g id="Сгруппировать_1878" data-name="Сгруппировать 1878" transform="translate(0 35.901)">
                <path id="Контур_862" data-name="Контур 862" d="M689.093,514.087l7.242-12.544H681.85Z" transform="translate(-681.85 -501.542)"/>
              </g>
              <g id="Сгруппировать_1879" data-name="Сгруппировать 1879">
                <path id="Контур_863" data-name="Контур 863" d="M689.093,487.886l-7.242,12.544h14.485Z" transform="translate(-681.85 -487.886)"/>
              </g>
            </g>
          </g>
        </g>
        <circle id="Эллипс_7" data-name="Эллипс 7" cx="251.424" cy="251.424" r="251.424" transform="translate(-1354.415 2186.972) rotate(-45)" fill="#fff"/>
      </g>
    </g>
  </g>
</svg>
