<svg xmlns="http://www.w3.org/2000/svg" xmlns:xlink="http://www.w3.org/1999/xlink" width="1490.885" height="1131.022" viewBox="0 0 1490.885 1131.022">
  <defs>
    <filter id="Контур_748" x="795.366" y="621.138" width="695.519" height="509.885" filterUnits="userSpaceOnUse">
      <feOffset input="SourceAlpha"/>
      <feGaussianBlur stdDeviation="3.805" result="blur"/>
      <feFlood flood-color="#282828" flood-opacity="0.302"/>
      <feComposite operator="in" in2="blur"/>
      <feComposite in="SourceGraphic"/>
    </filter>
    <filter id="Контур_749" x="74.954" y="223.624" width="518.331" height="383.366" filterUnits="userSpaceOnUse">
      <feOffset input="SourceAlpha"/>
      <feGaussianBlur stdDeviation="4.876" result="blur-2"/>
      <feFlood flood-color="#282828" flood-opacity="0.302"/>
      <feComposite operator="in" in2="blur-2"/>
      <feComposite in="SourceGraphic"/>
    </filter>
  </defs>
  <g id="Сгруппировать_1915" data-name="Сгруппировать 1915" transform="translate(2392.934 3078.902) rotate(90)">
    <g id="Сгруппировать_1774" data-name="Сгруппировать 1774" transform="translate(-2745.023 1481.724)">
      <g id="Сгруппировать_1770" data-name="Сгруппировать 1770">
        <g id="Сгруппировать_1768" data-name="Сгруппировать 1768">
          <path id="Контур_690" data-name="Контур 690" d="M43.9,120.144l32.449,18.734V101.409Z" transform="translate(-43.899 10.997)" fill="#f0f220"/>
          <path id="Контур_691" data-name="Контур 691" d="M43.9,111.66,76.348,130.4V92.926Z" transform="translate(-43.899 -17.988)" fill="#f0f220"/>
          <path id="Контур_692" data-name="Контур 692" d="M43.9,103.178l32.449,18.735V84.443Z" transform="translate(-43.899 -46.974)" fill="#f0f220"/>
          <path id="Контур_693" data-name="Контур 693" d="M43.9,94.695l32.449,18.734V75.96Z" transform="translate(-43.899 -75.96)" fill="#f0f220"/>
        </g>
        <g id="Сгруппировать_1769" data-name="Сгруппировать 1769" transform="translate(32.449 18.735)">
          <path id="Контур_694" data-name="Контур 694" d="M51.246,115.9l32.449,18.735V97.168Z" transform="translate(-51.246 -22.23)" fill="#f0f220"/>
          <path id="Контур_695" data-name="Контур 695" d="M51.246,107.419l32.449,18.734V88.685Z" transform="translate(-51.246 -51.216)" fill="#f0f220"/>
          <path id="Контур_696" data-name="Контур 696" d="M51.246,98.936,83.695,117.67V80.2Z" transform="translate(-51.246 -80.202)" fill="#f0f220"/>
        </g>
      </g>
      <g id="Сгруппировать_1773" data-name="Сгруппировать 1773" transform="translate(64.898)">
        <g id="Сгруппировать_1771" data-name="Сгруппировать 1771">
          <path id="Контур_697" data-name="Контур 697" d="M58.593,120.144l32.449,18.734V101.409Z" transform="translate(-58.593 10.997)" fill="#f0f220"/>
          <path id="Контур_698" data-name="Контур 698" d="M58.593,111.66,91.042,130.4V92.926Z" transform="translate(-58.593 -17.988)" fill="#f0f220"/>
          <path id="Контур_699" data-name="Контур 699" d="M58.593,103.178l32.449,18.735V84.443Z" transform="translate(-58.593 -46.974)" fill="#f0f220"/>
          <path id="Контур_700" data-name="Контур 700" d="M58.593,94.695l32.449,18.734V75.96Z" transform="translate(-58.593 -75.96)" fill="#f0f220"/>
        </g>
        <g id="Сгруппировать_1772" data-name="Сгруппировать 1772" transform="translate(32.449 18.735)">
          <path id="Контур_701" data-name="Контур 701" d="M65.939,115.9l32.449,18.735V97.168Z" transform="translate(-65.939 -22.23)" fill="#f0f220"/>
          <path id="Контур_702" data-name="Контур 702" d="M65.939,107.419l32.449,18.734V88.685Z" transform="translate(-65.939 -51.216)" fill="#f0f220"/>
          <path id="Контур_703" data-name="Контур 703" d="M65.939,98.936,98.388,117.67V80.2Z" transform="translate(-65.939 -80.202)" fill="#f0f220"/>
        </g>
      </g>
    </g>
    <g transform="matrix(0, -1, 1, 0, -3078.9, 2392.93)" filter="url(#Контур_748)">
      <path id="Контур_748-2" data-name="Контур 748" d="M598.574,283.647,111.521-52.7V619.992Z" transform="translate(1426.77 521.03) rotate(90)" fill="#fff"/>
    </g>
    <g transform="matrix(0, -1, 1, 0, -3078.9, 2392.93)" filter="url(#Контур_749)">
      <path id="Контур_749-2" data-name="Контур 749" d="M345.792,353.572-8.317,109.035V598.11Z" transform="translate(687.69 246.57) rotate(90)" fill="#fff"/>
    </g>
    
    <path id="Контур_830" data-name="Контур 830" d="M390.059,269.924H156.064V35.929H390.059Zm-233.745-.25H389.809V36.179H156.314ZM354.1,233.962H192.026V71.891H354.1Zm-161.821-.25H353.847V72.141H192.276Z" transform="translate(-2405.244 1269.411)"/>
    <path id="Контур_836" data-name="Контур 836" d="M31.62,154.117a39.88,39.88,0,0,1-4.871-.3c-6.5-.8-12.5-3.094-18.3-5.314-11.574-4.431-23.542-9.013-40.1-1.867l-.066-.153a45.063,45.063,0,0,1,11.638-3.37,38.719,38.719,0,0,1,10.288-.081c6.5.8,12.5,3.094,18.3,5.314,11.574,4.431,23.542,9.013,40.1,1.864s21.431-19,26.146-30.46c2.362-5.743,4.805-11.682,8.685-16.963a38.716,38.716,0,0,1,7.115-7.43,48.35,48.35,0,0,1,22.071-9.527,38.72,38.72,0,0,1,10.287-.081c6.5.8,12.5,3.094,18.3,5.314,11.575,4.43,23.543,9.012,40.1,1.865s21.437-19,26.152-30.465c2.363-5.744,4.806-11.683,8.687-16.964a38.725,38.725,0,0,1,7.117-7.432,48.374,48.374,0,0,1,22.075-9.529,38.72,38.72,0,0,1,10.289-.082c6.5.8,12.5,3.093,18.3,5.313,11.576,4.43,23.546,9.012,40.1,1.863l.066.153a45.067,45.067,0,0,1-11.638,3.371,38.719,38.719,0,0,1-10.289.082c-6.5-.8-12.5-3.093-18.3-5.313-11.576-4.43-23.546-9.012-40.1-1.863s-21.437,19-26.152,30.465c-2.363,5.744-4.806,11.683-8.687,16.964a38.725,38.725,0,0,1-7.117,7.432,48.357,48.357,0,0,1-22.074,9.528,38.717,38.717,0,0,1-10.287.081c-6.5-.8-12.5-3.094-18.3-5.314-11.575-4.43-23.543-9.012-40.1-1.865s-21.431,19-26.146,30.46c-2.362,5.743-4.805,11.682-8.685,16.962a38.713,38.713,0,0,1-7.115,7.43,45.056,45.056,0,0,1-10.434,6.157,45.055,45.055,0,0,1-11.637,3.371A38.43,38.43,0,0,1,31.62,154.117Z" transform="translate(-3047.184 1242.696)"/>
    <g id="Сгруппировать_1860" data-name="Сгруппировать 1860" transform="translate(-2238.878 1762.415)">
      <g id="Сгруппировать_1858" data-name="Сгруппировать 1858" transform="translate(0 28.529)">
        <path id="Контур_844" data-name="Контур 844" d="M158.493,158.136,179.569,170.3V145.969Z" transform="translate(-158.493 -145.969)" fill="#f0f220"/>
        <path id="Контур_845" data-name="Контур 845" d="M193.225,158.136l-21.076-12.168V170.3Z" transform="translate(-111.832 -145.969)" fill="#f0f220"/>
      </g>
      <g id="Сгруппировать_1859" data-name="Сгруппировать 1859" transform="translate(28.529)">
        <path id="Контур_846" data-name="Контур 846" d="M177.12,174.241l12.168-21.076H164.952Z" transform="translate(-164.952 -92.849)" fill="#f0f220"/>
        <path id="Контур_847" data-name="Контур 847" d="M177.12,139.51l-12.168,21.076h24.336Z" transform="translate(-164.952 -139.51)" fill="#f0f220"/>
      </g>
    </g>
  </g>
</svg>
